<svg xmlns="http://www.w3.org/2000/svg" width="32" height="32" viewBox="0 0 32 32">
<rect width="32" height="32" fill="#0B0B0B"/>
<path d="M14.875 6.188 L14.438 6.188 L14.375 6.125 L14.312 6.188 L13.375 6.188 L13.312 6.250 L12.375 6.312 L12.312 6.375 L11.625 6.500 L11.062 6.750 L10.750 6.812 L10.000 7.188 L9.500 7.500 L8.500 8.312 L7.938 8.938 L7.375 9.750 L6.688 11.188 L6.375 12.312 L6.250 13.312 L6.188 13.375 L6.125 15.250 L13.250 15.250 L14.000 14.938 L14.375 14.625 L14.812 13.875 L14.812 13.625 L14.875 13.562 Z" fill="#FFFFFF"/>
<path d="M17.062 6.188 L17.062 13.625 L17.250 14.188 L17.500 14.562 L17.938 14.938 L18.688 15.250 L25.812 15.250 L25.750 15.188 L25.812 15.125 L25.750 13.438 L25.688 13.375 L25.688 12.938 L25.625 12.875 L25.438 11.750 L25.188 11.000 L24.812 10.188 L24.000 8.938 L23.000 7.938 L22.250 7.375 L21.312 6.875 L21.188 6.875 L20.688 6.625 L19.562 6.312 L18.812 6.250 L18.750 6.188 Z" fill="#FFFFFF"/>
<path d="M6.125 17.500 L6.188 19.438 L6.250 19.500 L6.250 19.875 L6.312 19.938 L6.312 20.250 L6.375 20.312 L6.500 21.000 L6.750 21.750 L7.125 22.562 L7.688 23.500 L8.250 24.188 L9.500 25.250 L9.688 25.312 L10.000 25.562 L11.250 26.125 L12.125 26.375 L12.750 26.438 L12.812 26.500 L14.875 26.562 L14.875 19.188 L14.750 18.750 L14.500 18.312 L13.875 17.750 L13.188 17.500 Z" fill="#FFFFFF"/>
<path d="M25.812 17.500 L18.750 17.500 L18.062 17.750 L17.375 18.375 L17.062 19.125 L17.062 26.562 L18.500 26.562 L18.562 26.500 L19.062 26.500 L19.125 26.438 L19.438 26.438 L19.500 26.375 L20.250 26.250 L21.000 26.000 L21.812 25.625 L22.688 25.062 L23.375 24.500 L24.250 23.500 L24.312 23.312 L24.688 22.812 L25.250 21.625 L25.250 21.438 L25.375 21.250 L25.375 21.062 L25.562 20.562 L25.625 19.938 L25.688 19.875 L25.688 19.500 L25.750 19.438 L25.750 18.812 L25.812 18.750 L25.812 17.625 L25.750 17.562 Z" fill="#FFFFFF"/>
</svg>